<svg width="1231" height="1026" viewBox="0 0 1231 1026" fill="none" xmlns="http://www.w3.org/2000/svg">
<path d="M615.504 755.998C657.44 755.998 691.437 720.188 691.437 676.015C691.437 631.842 657.44 596.032 615.504 596.032C573.567 596.032 539.57 631.842 539.57 676.015C539.57 720.188 573.567 755.998 615.504 755.998Z" fill="#090000"/>
<path d="M539.579 581.791C573.358 581.791 600.74 552.972 600.74 517.421C600.74 481.871 573.358 453.052 539.579 453.052C505.801 453.052 478.418 481.871 478.418 517.421C478.418 552.972 505.801 581.791 539.579 581.791Z" fill="black"/>
<path d="M691.435 581.791C725.213 581.791 752.596 552.972 752.596 517.421C752.596 481.871 725.213 453.052 691.435 453.052C657.656 453.052 630.273 481.871 630.273 517.421C630.273 552.972 657.656 581.791 691.435 581.791Z" fill="black"/>
<path d="M616.541 441.548C643.306 441.548 665.003 418.738 665.003 390.6C665.003 362.462 643.306 339.652 616.541 339.652C589.776 339.652 568.078 362.462 568.078 390.6C568.078 418.738 589.776 441.548 616.541 441.548Z" fill="url(#paint0_linear_231_2076)"/>
<path d="M465.705 441.548C492.47 441.548 514.167 418.738 514.167 390.6C514.167 362.462 492.47 339.652 465.705 339.652C438.94 339.652 417.242 362.462 417.242 390.6C417.242 418.738 438.94 441.548 465.705 441.548Z" fill="black"/>
<path d="M391.331 328.699C412.8 328.699 430.205 310.426 430.205 287.885C430.205 265.345 412.8 247.072 391.331 247.072C369.861 247.072 352.457 265.345 352.457 287.885C352.457 310.426 369.861 328.699 391.331 328.699Z" fill="black"/>
<path d="M541.12 328.699C562.589 328.699 579.994 310.426 579.994 287.885C579.994 265.345 562.589 247.072 541.12 247.072C519.65 247.072 502.246 265.345 502.246 287.885C502.246 310.426 519.65 328.699 541.12 328.699Z" fill="url(#paint1_linear_231_2076)"/>
<path d="M691.436 328.699C712.906 328.699 730.31 310.426 730.31 287.885C730.31 265.345 712.906 247.072 691.436 247.072C669.967 247.072 652.562 265.345 652.562 287.885C652.562 310.426 669.967 328.699 691.436 328.699Z" fill="url(#paint2_linear_231_2076)"/>
<path d="M841.741 328.699C863.21 328.699 880.615 310.426 880.615 287.885C880.615 265.345 863.21 247.072 841.741 247.072C820.272 247.072 802.867 265.345 802.867 287.885C802.867 310.426 820.272 328.699 841.741 328.699Z" fill="black"/>
<path d="M766.33 241.593C783.935 241.593 798.206 226.631 798.206 208.175C798.206 189.719 783.935 174.758 766.33 174.758C748.725 174.758 734.453 189.719 734.453 208.175C734.453 226.631 748.725 241.593 766.33 241.593Z" fill="url(#paint3_linear_231_2076)"/>
<path d="M917.162 241.593C934.767 241.593 949.038 226.631 949.038 208.175C949.038 189.719 934.767 174.758 917.162 174.758C899.557 174.758 885.285 189.719 885.285 208.175C885.285 226.631 899.557 241.593 917.162 241.593Z" fill="black"/>
<path d="M615.494 241.593C633.099 241.593 647.37 226.631 647.37 208.175C647.37 189.719 633.099 174.758 615.494 174.758C597.889 174.758 583.617 189.719 583.617 208.175C583.617 226.631 597.889 241.593 615.494 241.593Z" fill="url(#paint4_linear_231_2076)"/>
<path d="M465.709 241.593C483.313 241.593 497.585 226.631 497.585 208.175C497.585 189.719 483.313 174.758 465.709 174.758C448.104 174.758 433.832 189.719 433.832 208.175C433.832 226.631 448.104 241.593 465.709 241.593Z" fill="url(#paint5_linear_231_2076)"/>
<path d="M313.841 241.593C331.446 241.593 345.718 226.631 345.718 208.175C345.718 189.719 331.446 174.758 313.841 174.758C296.236 174.758 281.965 189.719 281.965 208.175C281.965 226.631 296.236 241.593 313.841 241.593Z" fill="black"/>
<path d="M691.956 172.016C706.842 172.016 718.909 159.385 718.909 143.803C718.909 128.221 706.842 115.59 691.956 115.59C677.071 115.59 665.004 128.221 665.004 143.803C665.004 159.385 677.071 172.016 691.956 172.016Z" fill="url(#paint6_linear_231_2076)"/>
<path d="M842.781 172.016C857.666 172.016 869.733 159.385 869.733 143.803C869.733 128.221 857.666 115.59 842.781 115.59C827.895 115.59 815.828 128.221 815.828 143.803C815.828 159.385 827.895 172.016 842.781 172.016Z" fill="url(#paint7_linear_231_2076)"/>
<path d="M993.613 172.016C1008.5 172.016 1020.57 159.385 1020.57 143.803C1020.57 128.221 1008.5 115.59 993.613 115.59C978.727 115.59 966.66 128.221 966.66 143.803C966.66 159.385 978.727 172.016 993.613 172.016Z" fill="black"/>
<path d="M541.124 172.016C556.01 172.016 568.077 159.385 568.077 143.803C568.077 128.221 556.01 115.59 541.124 115.59C526.239 115.59 514.172 128.221 514.172 143.803C514.172 159.385 526.239 172.016 541.124 172.016Z" fill="url(#paint8_linear_231_2076)"/>
<path d="M390.288 169.279C405.174 169.279 417.241 156.647 417.241 141.066C417.241 125.484 405.174 112.853 390.288 112.853C375.403 112.853 363.336 125.484 363.336 141.066C363.336 156.647 375.403 169.279 390.288 169.279Z" fill="url(#paint9_linear_231_2076)"/>
<path d="M239.468 169.279C254.354 169.279 266.421 156.647 266.421 141.066C266.421 125.484 254.354 112.853 239.468 112.853C224.583 112.853 212.516 125.484 212.516 141.066C212.516 156.647 224.583 169.279 239.468 169.279Z" fill="black"/>
<path d="M618.091 112.85C630.257 112.85 640.119 102.672 640.119 90.1156C640.119 77.5596 630.257 67.3809 618.091 67.3809C605.925 67.3809 596.062 77.5596 596.062 90.1156C596.062 102.672 605.925 112.85 618.091 112.85Z" fill="url(#paint10_linear_231_2076)"/>
<path d="M467.255 112.85C479.421 112.85 489.283 102.672 489.283 90.1156C489.283 77.5596 479.421 67.3809 467.255 67.3809C455.089 67.3809 445.227 77.5596 445.227 90.1156C445.227 102.672 455.089 112.85 467.255 112.85Z" fill="url(#paint11_linear_231_2076)"/>
<path d="M316.435 111.208C328.601 111.208 338.463 101.029 338.463 88.4731C338.463 75.917 328.601 65.7383 316.435 65.7383C304.269 65.7383 294.406 75.917 294.406 88.4731C294.406 101.029 304.269 111.208 316.435 111.208Z" fill="url(#paint12_linear_231_2076)"/>
<path d="M168.196 112.85C180.362 112.85 190.225 102.672 190.225 90.1156C190.225 77.5596 180.362 67.3809 168.196 67.3809C156.03 67.3809 146.168 77.5596 146.168 90.1156C146.168 102.672 156.03 112.85 168.196 112.85Z" fill="black"/>
<path d="M766.325 111.208C778.491 111.208 788.354 101.029 788.354 88.4731C788.354 75.917 778.491 65.7383 766.325 65.7383C754.159 65.7383 744.297 75.917 744.297 88.4731C744.297 101.029 754.159 111.208 766.325 111.208Z" fill="url(#paint13_linear_231_2076)"/>
<path d="M917.157 112.85C929.323 112.85 939.186 102.672 939.186 90.1156C939.186 77.5596 929.323 67.3809 917.157 67.3809C904.991 67.3809 895.129 77.5596 895.129 90.1156C895.129 102.672 904.991 112.85 917.157 112.85Z" fill="url(#paint14_linear_231_2076)"/>
<path d="M1065.4 112.85C1077.56 112.85 1087.42 102.672 1087.42 90.1156C1087.42 77.5596 1077.56 67.3809 1065.4 67.3809C1053.23 67.3809 1043.37 77.5596 1043.37 90.1156C1043.37 102.672 1053.23 112.85 1065.4 112.85Z" fill="black"/>
<path d="M541.379 65.7366C550.969 65.7366 558.743 57.6427 558.743 47.6584C558.743 37.674 550.969 29.5801 541.379 29.5801C531.79 29.5801 524.016 37.674 524.016 47.6584C524.016 57.6427 531.79 65.7366 541.379 65.7366Z" fill="url(#paint15_linear_231_2076)"/>
<path d="M692.215 65.7366C701.805 65.7366 709.579 57.6427 709.579 47.6584C709.579 37.674 701.805 29.5801 692.215 29.5801C682.626 29.5801 674.852 37.674 674.852 47.6584C674.852 57.6427 682.626 65.7366 692.215 65.7366Z" fill="url(#paint16_linear_231_2076)"/>
<path d="M840.45 67.386C850.039 67.386 857.813 59.2921 857.813 49.3078C857.813 39.3234 850.039 31.2295 840.45 31.2295C830.86 31.2295 823.086 39.3234 823.086 49.3078C823.086 59.2921 830.86 67.386 840.45 67.386Z" fill="url(#paint17_linear_231_2076)"/>
<path d="M993.868 67.386C1003.46 67.386 1011.23 59.2921 1011.23 49.3078C1011.23 39.3234 1003.46 31.2295 993.868 31.2295C984.278 31.2295 976.504 39.3234 976.504 49.3078C976.504 59.2921 984.278 67.386 993.868 67.386Z" fill="url(#paint18_linear_231_2076)"/>
<path d="M1142.11 67.386C1151.7 67.386 1159.47 59.2921 1159.47 49.3078C1159.47 39.3234 1151.7 31.2295 1142.11 31.2295C1132.52 31.2295 1124.74 39.3234 1124.74 49.3078C1124.74 59.2921 1132.52 67.386 1142.11 67.386Z" fill="black"/>
<path d="M390.547 67.386C400.137 67.386 407.911 59.2921 407.911 49.3078C407.911 39.3234 400.137 31.2295 390.547 31.2295C380.958 31.2295 373.184 39.3234 373.184 49.3078C373.184 59.2921 380.958 67.386 390.547 67.386Z" fill="url(#paint19_linear_231_2076)"/>
<path d="M239.723 65.7366C249.313 65.7366 257.087 57.6427 257.087 47.6584C257.087 37.674 249.313 29.5801 239.723 29.5801C230.133 29.5801 222.359 37.674 222.359 47.6584C222.359 57.6427 230.133 65.7366 239.723 65.7366Z" fill="url(#paint20_linear_231_2076)"/>
<path d="M88.8909 65.7366C98.4806 65.7366 106.254 57.6427 106.254 47.6584C106.254 37.674 98.4806 29.5801 88.8909 29.5801C79.3013 29.5801 71.5273 37.674 71.5273 47.6584C71.5273 57.6427 79.3013 65.7366 88.8909 65.7366Z" fill="black"/>
<path d="M465.709 29.5826C473.868 29.5826 480.481 22.9603 480.481 14.7913C480.481 6.6223 473.868 0 465.709 0C457.551 0 450.938 6.6223 450.938 14.7913C450.938 22.9603 457.551 29.5826 465.709 29.5826Z" fill="url(#paint21_linear_231_2076)"/>
<path d="M615.499 31.2252C623.657 31.2252 630.271 24.6029 630.271 16.4339C630.271 8.26488 623.657 1.64258 615.499 1.64258C607.34 1.64258 600.727 8.26488 600.727 16.4339C600.727 24.6029 607.34 31.2252 615.499 31.2252Z" fill="url(#paint22_linear_231_2076)"/>
<path d="M766.331 31.2252C774.489 31.2252 781.103 24.6029 781.103 16.4339C781.103 8.26488 774.489 1.64258 766.331 1.64258C758.172 1.64258 751.559 8.26488 751.559 16.4339C751.559 24.6029 758.172 31.2252 766.331 31.2252Z" fill="url(#paint23_linear_231_2076)"/>
<path d="M919.749 31.2252C927.907 31.2252 934.521 24.6029 934.521 16.4339C934.521 8.26488 927.907 1.64258 919.749 1.64258C911.59 1.64258 904.977 8.26488 904.977 16.4339C904.977 24.6029 911.59 31.2252 919.749 31.2252Z" fill="url(#paint24_linear_231_2076)"/>
<path d="M1065.4 31.2252C1073.56 31.2252 1080.17 24.6029 1080.17 16.4339C1080.17 8.26488 1073.56 1.64258 1065.4 1.64258C1057.24 1.64258 1050.63 8.26488 1050.63 16.4339C1050.63 24.6029 1057.24 31.2252 1065.4 31.2252Z" fill="url(#paint25_linear_231_2076)"/>
<path d="M1216.23 31.2252C1224.38 31.2252 1231 24.6029 1231 16.4339C1231 8.26488 1224.38 1.64258 1216.23 1.64258C1208.07 1.64258 1201.45 8.26488 1201.45 16.4339C1201.45 24.6029 1208.07 31.2252 1216.23 31.2252Z" fill="black"/>
<path d="M316.424 31.2252C324.583 31.2252 331.196 24.6029 331.196 16.4339C331.196 8.26488 324.583 1.64258 316.424 1.64258C308.266 1.64258 301.652 8.26488 301.652 16.4339C301.652 24.6029 308.266 31.2252 316.424 31.2252Z" fill="url(#paint26_linear_231_2076)"/>
<path d="M163.01 31.2252C171.169 31.2252 177.782 24.6029 177.782 16.4339C177.782 8.26488 171.169 1.64258 163.01 1.64258C154.852 1.64258 148.238 8.26488 148.238 16.4339C148.238 24.6029 154.852 31.2252 163.01 31.2252Z" fill="url(#paint27_linear_231_2076)"/>
<path d="M14.772 31.2252C22.9304 31.2252 29.544 24.6029 29.544 16.4339C29.544 8.26488 22.9304 1.64258 14.772 1.64258C6.61365 1.64258 0 8.26488 0 16.4339C0 24.6029 6.61365 31.2252 14.772 31.2252Z" fill="url(#paint28_linear_231_2076)"/>
<path d="M767.373 441.548C794.138 441.548 815.835 418.738 815.835 390.6C815.835 362.462 794.138 339.652 767.373 339.652C740.608 339.652 718.91 362.462 718.91 390.6C718.91 418.738 740.608 441.548 767.373 441.548Z" fill="black"/>
<path d="M383.462 774.533L324.99 953H268.228L210 774.533H264.199L288.491 864.987C289.386 868.405 290.404 872.8 291.543 878.171C292.764 883.461 293.862 888.75 294.839 894.04C295.897 899.33 296.548 903.643 296.792 906.979C297.118 903.643 297.728 899.37 298.623 894.162C299.518 888.954 300.495 883.745 301.553 878.537C302.692 873.247 303.75 868.894 304.727 865.476L329.507 774.533H383.462ZM450.068 812.253C467.565 812.253 481.237 816.607 491.084 825.314C500.931 833.941 505.854 846.27 505.854 862.302V953H472.773L463.618 934.689H462.642C458.735 939.572 454.707 943.56 450.557 946.652C446.488 949.663 441.808 951.861 436.519 953.244C431.229 954.709 424.759 955.441 417.109 955.441C409.134 955.441 401.973 953.814 395.625 950.559C389.277 947.303 384.272 942.38 380.61 935.788C376.948 929.196 375.117 920.855 375.117 910.764C375.117 895.952 380.244 884.966 390.498 877.805C400.752 870.643 415.604 866.615 435.054 865.72L458.125 864.987V863.034C458.125 856.849 456.579 852.455 453.486 849.851C450.475 847.246 446.406 845.944 441.279 845.944C435.827 845.944 429.723 846.921 422.969 848.874C416.296 850.746 409.582 853.187 402.827 856.198L389.033 824.704C397.008 820.635 406.042 817.543 416.133 815.427C426.224 813.311 437.536 812.253 450.068 812.253ZM458.369 891.232L447.383 891.721C438.594 892.046 432.409 893.592 428.828 896.359C425.329 899.045 423.579 902.91 423.579 907.956C423.579 912.676 424.84 916.175 427.363 918.454C429.886 920.651 433.223 921.75 437.373 921.75C443.151 921.75 448.075 919.919 452.144 916.257C456.294 912.595 458.369 907.834 458.369 901.975V891.232ZM607.373 812.253C621.615 812.253 633.252 816.281 642.285 824.338C651.318 832.395 655.835 845.293 655.835 863.034V953H608.105V877.561C608.105 868.365 606.763 861.447 604.077 856.809C601.473 852.089 597.241 849.729 591.382 849.729C582.349 849.729 576.286 853.431 573.193 860.837C570.101 868.161 568.555 878.7 568.555 892.453V953H520.825V814.694H556.836L563.306 833.005H565.137C568.066 828.61 571.566 824.867 575.635 821.774C579.704 818.682 584.383 816.322 589.673 814.694C594.963 813.067 600.863 812.253 607.373 812.253ZM718.779 814.694V953H671.05V814.694H718.779ZM695.098 759.03C701.934 759.03 707.874 760.454 712.92 763.303C718.047 766.151 720.61 771.807 720.61 780.271C720.61 788.49 718.047 794.064 712.92 796.994C707.874 799.842 701.934 801.267 695.098 801.267C688.099 801.267 682.118 799.842 677.153 796.994C672.271 794.064 669.829 788.49 669.829 780.271C669.829 771.807 672.271 766.151 677.153 763.303C682.118 760.454 688.099 759.03 695.098 759.03ZM821.152 812.253C835.394 812.253 847.031 816.281 856.064 824.338C865.098 832.395 869.614 845.293 869.614 863.034V953H821.885V877.561C821.885 868.365 820.542 861.447 817.856 856.809C815.252 852.089 811.021 849.729 805.161 849.729C796.128 849.729 790.065 853.431 786.973 860.837C783.88 868.161 782.334 878.7 782.334 892.453V953H734.604V814.694H770.615L777.085 833.005H778.916C781.846 828.61 785.345 824.867 789.414 821.774C793.483 818.682 798.162 816.322 803.452 814.694C808.742 813.067 814.642 812.253 821.152 812.253ZM946.841 812.253C960.269 812.253 971.865 814.613 981.631 819.333C991.396 823.972 998.924 830.97 1004.21 840.329C1009.5 849.688 1012.15 861.407 1012.15 875.485V896.726H926.821C927.228 903.968 929.914 909.909 934.878 914.548C939.924 919.187 947.329 921.506 957.095 921.506C965.721 921.506 973.615 920.651 980.776 918.942C988.019 917.233 995.465 914.589 1003.12 911.008V945.31C996.442 948.809 989.159 951.372 981.265 953C973.371 954.628 963.402 955.441 951.357 955.441C937.441 955.441 924.99 952.959 914.004 947.995C903.018 943.031 894.351 935.34 888.003 924.924C881.737 914.507 878.604 901.12 878.604 884.763C878.604 868.161 881.452 854.53 887.148 843.869C892.845 833.127 900.82 825.192 911.074 820.065C921.328 814.857 933.25 812.253 946.841 812.253ZM948.55 844.724C942.935 844.724 938.215 846.514 934.39 850.095C930.646 853.594 928.449 859.128 927.798 866.696H968.813C968.732 862.627 967.918 858.924 966.372 855.588C964.826 852.251 962.547 849.606 959.536 847.653C956.606 845.7 952.944 844.724 948.55 844.724Z" fill="url(#paint29_linear_231_2076)"/>
<defs>
<linearGradient id="paint0_linear_231_2076" x1="616.541" y1="339.653" x2="616.541" y2="441.55" gradientUnits="userSpaceOnUse">
<stop offset="0.185417" stop-color="#D02B2B"/>
<stop offset="0.9999" stop-color="#0057FF"/>
<stop offset="1" stop-color="#375DBF" stop-opacity="0"/>
</linearGradient>
<linearGradient id="paint1_linear_231_2076" x1="541.12" y1="247.073" x2="541.12" y2="328.699" gradientUnits="userSpaceOnUse">
<stop offset="0.185417" stop-color="#D02B2B"/>
<stop offset="0.9999" stop-color="#0057FF"/>
<stop offset="1" stop-color="#375DBF" stop-opacity="0"/>
</linearGradient>
<linearGradient id="paint2_linear_231_2076" x1="691.436" y1="247.073" x2="691.436" y2="328.699" gradientUnits="userSpaceOnUse">
<stop offset="0.185417" stop-color="#D02B2B"/>
<stop offset="0.9999" stop-color="#0057FF"/>
<stop offset="1" stop-color="#375DBF" stop-opacity="0"/>
</linearGradient>
<linearGradient id="paint3_linear_231_2076" x1="766.33" y1="174.758" x2="766.33" y2="241.593" gradientUnits="userSpaceOnUse">
<stop offset="0.185417" stop-color="#D02B2B"/>
<stop offset="0.9999" stop-color="#0057FF"/>
<stop offset="1" stop-color="#375DBF" stop-opacity="0"/>
</linearGradient>
<linearGradient id="paint4_linear_231_2076" x1="615.494" y1="174.758" x2="615.494" y2="241.593" gradientUnits="userSpaceOnUse">
<stop offset="0.185417" stop-color="#D02B2B"/>
<stop offset="0.9999" stop-color="#0057FF"/>
<stop offset="1" stop-color="#375DBF" stop-opacity="0"/>
</linearGradient>
<linearGradient id="paint5_linear_231_2076" x1="465.709" y1="174.758" x2="465.709" y2="241.593" gradientUnits="userSpaceOnUse">
<stop offset="0.185417" stop-color="#D02B2B"/>
<stop offset="0.9999" stop-color="#0057FF"/>
<stop offset="1" stop-color="#375DBF" stop-opacity="0"/>
</linearGradient>
<linearGradient id="paint6_linear_231_2076" x1="691.956" y1="115.59" x2="691.956" y2="172.016" gradientUnits="userSpaceOnUse">
<stop offset="0.185417" stop-color="#D02B2B"/>
<stop offset="0.9999" stop-color="#0057FF"/>
<stop offset="1" stop-color="#375DBF" stop-opacity="0"/>
</linearGradient>
<linearGradient id="paint7_linear_231_2076" x1="842.781" y1="115.59" x2="842.781" y2="172.016" gradientUnits="userSpaceOnUse">
<stop offset="0.185417" stop-color="#D02B2B"/>
<stop offset="0.9999" stop-color="#0057FF"/>
<stop offset="1" stop-color="#375DBF" stop-opacity="0"/>
</linearGradient>
<linearGradient id="paint8_linear_231_2076" x1="541.124" y1="115.59" x2="541.124" y2="172.016" gradientUnits="userSpaceOnUse">
<stop offset="0.185417" stop-color="#D02B2B"/>
<stop offset="0.9999" stop-color="#0057FF"/>
<stop offset="1" stop-color="#375DBF" stop-opacity="0"/>
</linearGradient>
<linearGradient id="paint9_linear_231_2076" x1="390.288" y1="112.853" x2="390.288" y2="169.279" gradientUnits="userSpaceOnUse">
<stop offset="0.185417" stop-color="#D02B2B"/>
<stop offset="0.9999" stop-color="#0057FF"/>
<stop offset="1" stop-color="#375DBF" stop-opacity="0"/>
</linearGradient>
<linearGradient id="paint10_linear_231_2076" x1="618.091" y1="67.381" x2="618.091" y2="112.851" gradientUnits="userSpaceOnUse">
<stop offset="0.185417" stop-color="#D02B2B"/>
<stop offset="0.9999" stop-color="#0057FF"/>
<stop offset="1" stop-color="#375DBF" stop-opacity="0"/>
</linearGradient>
<linearGradient id="paint11_linear_231_2076" x1="467.255" y1="67.381" x2="467.255" y2="112.851" gradientUnits="userSpaceOnUse">
<stop offset="0.185417" stop-color="#D02B2B"/>
<stop offset="0.9999" stop-color="#0057FF"/>
<stop offset="1" stop-color="#375DBF" stop-opacity="0"/>
</linearGradient>
<linearGradient id="paint12_linear_231_2076" x1="316.435" y1="65.7381" x2="316.435" y2="111.208" gradientUnits="userSpaceOnUse">
<stop offset="0.185417" stop-color="#D02B2B"/>
<stop offset="0.9999" stop-color="#0057FF"/>
<stop offset="1" stop-color="#375DBF" stop-opacity="0"/>
</linearGradient>
<linearGradient id="paint13_linear_231_2076" x1="766.325" y1="65.7381" x2="766.325" y2="111.208" gradientUnits="userSpaceOnUse">
<stop offset="0.185417" stop-color="#D02B2B"/>
<stop offset="0.9999" stop-color="#0057FF"/>
<stop offset="1" stop-color="#375DBF" stop-opacity="0"/>
</linearGradient>
<linearGradient id="paint14_linear_231_2076" x1="917.157" y1="67.381" x2="917.157" y2="112.851" gradientUnits="userSpaceOnUse">
<stop offset="0.185417" stop-color="#D02B2B"/>
<stop offset="0.9999" stop-color="#0057FF"/>
<stop offset="1" stop-color="#375DBF" stop-opacity="0"/>
</linearGradient>
<linearGradient id="paint15_linear_231_2076" x1="541.379" y1="29.5801" x2="541.379" y2="65.7366" gradientUnits="userSpaceOnUse">
<stop offset="0.185417" stop-color="#D02B2B"/>
<stop offset="0.9999" stop-color="#0057FF"/>
<stop offset="1" stop-color="#375DBF" stop-opacity="0"/>
</linearGradient>
<linearGradient id="paint16_linear_231_2076" x1="692.215" y1="29.5801" x2="692.215" y2="65.7366" gradientUnits="userSpaceOnUse">
<stop offset="0.185417" stop-color="#D02B2B"/>
<stop offset="0.9999" stop-color="#0057FF"/>
<stop offset="1" stop-color="#375DBF" stop-opacity="0"/>
</linearGradient>
<linearGradient id="paint17_linear_231_2076" x1="840.45" y1="31.2295" x2="840.45" y2="67.386" gradientUnits="userSpaceOnUse">
<stop offset="0.185417" stop-color="#D02B2B"/>
<stop offset="0.9999" stop-color="#0057FF"/>
<stop offset="1" stop-color="#375DBF" stop-opacity="0"/>
</linearGradient>
<linearGradient id="paint18_linear_231_2076" x1="993.867" y1="31.2295" x2="993.867" y2="67.386" gradientUnits="userSpaceOnUse">
<stop offset="0.185417" stop-color="#D02B2B"/>
<stop offset="0.9999" stop-color="#0057FF"/>
<stop offset="1" stop-color="#375DBF" stop-opacity="0"/>
</linearGradient>
<linearGradient id="paint19_linear_231_2076" x1="390.547" y1="31.2295" x2="390.547" y2="67.386" gradientUnits="userSpaceOnUse">
<stop offset="0.185417" stop-color="#D02B2B"/>
<stop offset="0.9999" stop-color="#0057FF"/>
<stop offset="1" stop-color="#375DBF" stop-opacity="0"/>
</linearGradient>
<linearGradient id="paint20_linear_231_2076" x1="239.723" y1="29.5801" x2="239.723" y2="65.7366" gradientUnits="userSpaceOnUse">
<stop offset="0.185417" stop-color="#D02B2B"/>
<stop offset="0.9999" stop-color="#0057FF"/>
<stop offset="1" stop-color="#375DBF" stop-opacity="0"/>
</linearGradient>
<linearGradient id="paint21_linear_231_2076" x1="465.709" y1="0" x2="465.709" y2="29.5825" gradientUnits="userSpaceOnUse">
<stop stop-color="#D02B2B"/>
<stop offset="1" stop-color="#375DBF"/>
</linearGradient>
<linearGradient id="paint22_linear_231_2076" x1="615.499" y1="1.64259" x2="615.499" y2="31.2252" gradientUnits="userSpaceOnUse">
<stop stop-color="#D02B2B"/>
<stop offset="1" stop-color="#375DBF"/>
</linearGradient>
<linearGradient id="paint23_linear_231_2076" x1="766.331" y1="1.64259" x2="766.331" y2="31.2252" gradientUnits="userSpaceOnUse">
<stop stop-color="#D02B2B"/>
<stop offset="1" stop-color="#375DBF"/>
</linearGradient>
<linearGradient id="paint24_linear_231_2076" x1="919.749" y1="1.64259" x2="919.749" y2="31.2252" gradientUnits="userSpaceOnUse">
<stop stop-color="#D02B2B"/>
<stop offset="1" stop-color="#375DBF"/>
</linearGradient>
<linearGradient id="paint25_linear_231_2076" x1="1065.4" y1="1.64259" x2="1065.4" y2="31.2252" gradientUnits="userSpaceOnUse">
<stop stop-color="#D02B2B"/>
<stop offset="1" stop-color="#375DBF"/>
</linearGradient>
<linearGradient id="paint26_linear_231_2076" x1="316.424" y1="1.64259" x2="316.424" y2="31.2252" gradientUnits="userSpaceOnUse">
<stop stop-color="#D02B2B"/>
<stop offset="1" stop-color="#375DBF"/>
</linearGradient>
<linearGradient id="paint27_linear_231_2076" x1="163.01" y1="1.64259" x2="163.01" y2="31.2252" gradientUnits="userSpaceOnUse">
<stop stop-color="#D02B2B"/>
<stop offset="1" stop-color="#375DBF"/>
</linearGradient>
<linearGradient id="paint28_linear_231_2076" x1="14.772" y1="1.64259" x2="14.772" y2="31.2252" gradientUnits="userSpaceOnUse">
<stop stop-color="#5B0303"/>
<stop offset="1" stop-color="#375DBF"/>
</linearGradient>
<linearGradient id="paint29_linear_231_2076" x1="616.5" y1="686" x2="616.5" y2="1026" gradientUnits="userSpaceOnUse">
<stop stop-color="#090000"/>
<stop offset="1" stop-color="#090000"/>
</linearGradient>
</defs>
</svg>
