<svg width="75" height="49" viewBox="0 0 75 49" fill="none" xmlns="http://www.w3.org/2000/svg">
<path d="M37.0893 48.1435C39.6163 48.1435 41.6649 45.8631 41.6649 43.05C41.6649 40.237 39.6163 37.9565 37.0893 37.9565C34.5622 37.9565 32.5137 40.237 32.5137 43.05C32.5137 45.8631 34.5622 48.1435 37.0893 48.1435Z" fill="#090000"/>
<path d="M32.5136 37.0497C34.549 37.0497 36.1991 35.2144 36.1991 32.9505C36.1991 30.6866 34.549 28.8513 32.5136 28.8513C30.4782 28.8513 28.8281 30.6866 28.8281 32.9505C28.8281 35.2144 30.4782 37.0497 32.5136 37.0497Z" fill="black"/>
<path d="M41.665 37.0497C43.7004 37.0497 45.3504 35.2144 45.3504 32.9505C45.3504 30.6866 43.7004 28.8513 41.665 28.8513C39.6295 28.8513 37.9795 30.6866 37.9795 32.9505C37.9795 35.2144 39.6295 37.0497 41.665 37.0497Z" fill="black"/>
<path d="M37.1517 28.1188C38.7645 28.1188 40.072 26.6662 40.072 24.8744C40.072 23.0825 38.7645 21.6299 37.1517 21.6299C35.5389 21.6299 34.2314 23.0825 34.2314 24.8744C34.2314 26.6662 35.5389 28.1188 37.1517 28.1188Z" fill="url(#paint0_linear_35_1788)"/>
<path d="M28.0628 28.1188C29.6757 28.1188 30.9831 26.6662 30.9831 24.8744C30.9831 23.0825 29.6757 21.6299 28.0628 21.6299C26.45 21.6299 25.1426 23.0825 25.1426 24.8744C25.1426 26.6662 26.45 28.1188 28.0628 28.1188Z" fill="black"/>
<path d="M23.5807 20.9323C24.8745 20.9323 25.9232 19.7686 25.9232 18.3332C25.9232 16.8978 24.8745 15.7341 23.5807 15.7341C22.287 15.7341 21.2383 16.8978 21.2383 18.3332C21.2383 19.7686 22.287 20.9323 23.5807 20.9323Z" fill="black"/>
<path d="M32.6071 20.9323C33.9008 20.9323 34.9496 19.7686 34.9496 18.3332C34.9496 16.8978 33.9008 15.7341 32.6071 15.7341C31.3134 15.7341 30.2646 16.8978 30.2646 18.3332C30.2646 19.7686 31.3134 20.9323 32.6071 20.9323Z" fill="url(#paint1_linear_35_1788)"/>
<path d="M41.6647 20.9323C42.9584 20.9323 44.0072 19.7686 44.0072 18.3332C44.0072 16.8978 42.9584 15.7341 41.6647 15.7341C40.371 15.7341 39.3223 16.8978 39.3223 18.3332C39.3223 19.7686 40.371 20.9323 41.6647 20.9323Z" fill="url(#paint2_linear_35_1788)"/>
<path d="M50.7214 20.9323C52.0151 20.9323 53.0638 19.7686 53.0638 18.3332C53.0638 16.8978 52.0151 15.7341 50.7214 15.7341C49.4277 15.7341 48.3789 16.8978 48.3789 18.3332C48.3789 19.7686 49.4277 20.9323 50.7214 20.9323Z" fill="black"/>
<path d="M46.1777 15.3851C47.2385 15.3851 48.0985 14.4323 48.0985 13.257C48.0985 12.0817 47.2385 11.1289 46.1777 11.1289C45.1168 11.1289 44.2568 12.0817 44.2568 13.257C44.2568 14.4323 45.1168 15.3851 46.1777 15.3851Z" fill="url(#paint3_linear_35_1788)"/>
<path d="M55.2665 15.3851C56.3274 15.3851 57.1874 14.4323 57.1874 13.257C57.1874 12.0817 56.3274 11.1289 55.2665 11.1289C54.2057 11.1289 53.3457 12.0817 53.3457 13.257C53.3457 14.4323 54.2057 15.3851 55.2665 15.3851Z" fill="black"/>
<path d="M37.0878 15.3851C38.1487 15.3851 39.0086 14.4323 39.0086 13.257C39.0086 12.0817 38.1487 11.1289 37.0878 11.1289C36.027 11.1289 35.167 12.0817 35.167 13.257C35.167 14.4323 36.027 15.3851 37.0878 15.3851Z" fill="url(#paint4_linear_35_1788)"/>
<path d="M28.0624 15.3851C29.1233 15.3851 29.9832 14.4323 29.9832 13.257C29.9832 12.0817 29.1233 11.1289 28.0624 11.1289C27.0016 11.1289 26.1416 12.0817 26.1416 13.257C26.1416 14.4323 27.0016 15.3851 28.0624 15.3851Z" fill="url(#paint5_linear_35_1788)"/>
<path d="M18.9111 15.3851C19.9719 15.3851 20.8319 14.4323 20.8319 13.257C20.8319 12.0817 19.9719 11.1289 18.9111 11.1289C17.8502 11.1289 16.9902 12.0817 16.9902 13.257C16.9902 14.4323 17.8502 15.3851 18.9111 15.3851Z" fill="black"/>
<path d="M41.6964 10.9544C42.5933 10.9544 43.3205 10.15 43.3205 9.15776C43.3205 8.16548 42.5933 7.36108 41.6964 7.36108C40.7994 7.36108 40.0723 8.16548 40.0723 9.15776C40.0723 10.15 40.7994 10.9544 41.6964 10.9544Z" fill="url(#paint6_linear_35_1788)"/>
<path d="M50.7843 10.9544C51.6812 10.9544 52.4084 10.15 52.4084 9.15776C52.4084 8.16548 51.6812 7.36108 50.7843 7.36108C49.8873 7.36108 49.1602 8.16548 49.1602 9.15776C49.1602 10.15 49.8873 10.9544 50.7843 10.9544Z" fill="url(#paint7_linear_35_1788)"/>
<path d="M59.8731 10.9544C60.7701 10.9544 61.4972 10.15 61.4972 9.15776C61.4972 8.16548 60.7701 7.36108 59.8731 7.36108C58.9762 7.36108 58.249 8.16548 58.249 9.15776C58.249 10.15 58.9762 10.9544 59.8731 10.9544Z" fill="black"/>
<path d="M32.6075 10.9544C33.5045 10.9544 34.2316 10.15 34.2316 9.15776C34.2316 8.16548 33.5045 7.36108 32.6075 7.36108C31.7105 7.36108 30.9834 8.16548 30.9834 9.15776C30.9834 10.15 31.7105 10.9544 32.6075 10.9544Z" fill="url(#paint8_linear_35_1788)"/>
<path d="M23.5177 10.7801C24.4146 10.7801 25.1418 9.97572 25.1418 8.98344C25.1418 7.99117 24.4146 7.18677 23.5177 7.18677C22.6207 7.18677 21.8936 7.99117 21.8936 8.98344C21.8936 9.97572 22.6207 10.7801 23.5177 10.7801Z" fill="url(#paint9_linear_35_1788)"/>
<path d="M14.4298 10.7801C15.3267 10.7801 16.0539 9.97572 16.0539 8.98344C16.0539 7.99117 15.3267 7.18677 14.4298 7.18677C13.5328 7.18677 12.8057 7.99117 12.8057 8.98344C12.8057 9.97572 13.5328 10.7801 14.4298 10.7801Z" fill="black"/>
<path d="M37.2454 7.18662C37.9785 7.18662 38.5728 6.53842 38.5728 5.73882C38.5728 4.93922 37.9785 4.29102 37.2454 4.29102C36.5123 4.29102 35.918 4.93922 35.918 5.73882C35.918 6.53842 36.5123 7.18662 37.2454 7.18662Z" fill="url(#paint10_linear_35_1788)"/>
<path d="M28.1555 7.18662C28.8886 7.18662 29.4829 6.53842 29.4829 5.73882C29.4829 4.93922 28.8886 4.29102 28.1555 4.29102C27.4224 4.29102 26.8281 4.93922 26.8281 5.73882C26.8281 6.53842 27.4224 7.18662 28.1555 7.18662Z" fill="url(#paint11_linear_35_1788)"/>
<path d="M19.0676 7.08188C19.8007 7.08188 20.395 6.43368 20.395 5.63408C20.395 4.83448 19.8007 4.18628 19.0676 4.18628C18.3345 4.18628 17.7402 4.83448 17.7402 5.63408C17.7402 6.43368 18.3345 7.08188 19.0676 7.08188Z" fill="url(#paint12_linear_35_1788)"/>
<path d="M10.135 7.18662C10.8681 7.18662 11.4624 6.53842 11.4624 5.73882C11.4624 4.93922 10.8681 4.29102 10.135 4.29102C9.40191 4.29102 8.80762 4.93922 8.80762 5.73882C8.80762 6.53842 9.40191 7.18662 10.135 7.18662Z" fill="black"/>
<path d="M46.178 7.08188C46.9111 7.08188 47.5054 6.43368 47.5054 5.63408C47.5054 4.83448 46.9111 4.18628 46.178 4.18628C45.4449 4.18628 44.8506 4.83448 44.8506 5.63408C44.8506 6.43368 45.4449 7.08188 46.178 7.08188Z" fill="url(#paint13_linear_35_1788)"/>
<path d="M55.2659 7.18662C55.999 7.18662 56.5933 6.53842 56.5933 5.73882C56.5933 4.93922 55.999 4.29102 55.2659 4.29102C54.5328 4.29102 53.9385 4.93922 53.9385 5.73882C53.9385 6.53842 54.5328 7.18662 55.2659 7.18662Z" fill="url(#paint14_linear_35_1788)"/>
<path d="M64.1985 7.18662C64.9316 7.18662 65.5259 6.53842 65.5259 5.73882C65.5259 4.93922 64.9316 4.29102 64.1985 4.29102C63.4654 4.29102 62.8711 4.93922 62.8711 5.73882C62.8711 6.53842 63.4654 7.18662 64.1985 7.18662Z" fill="black"/>
<path d="M32.6225 4.18632C33.2003 4.18632 33.6688 3.67088 33.6688 3.03505C33.6688 2.39923 33.2003 1.88379 32.6225 1.88379C32.0446 1.88379 31.5762 2.39923 31.5762 3.03505C31.5762 3.67088 32.0446 4.18632 32.6225 4.18632Z" fill="url(#paint15_linear_35_1788)"/>
<path d="M41.7123 4.18632C42.2902 4.18632 42.7586 3.67088 42.7586 3.03505C42.7586 2.39923 42.2902 1.88379 41.7123 1.88379C41.1345 1.88379 40.666 2.39923 40.666 3.03505C40.666 3.67088 41.1345 4.18632 41.7123 4.18632Z" fill="url(#paint16_linear_35_1788)"/>
<path d="M50.644 4.2913C51.2218 4.2913 51.6903 3.77586 51.6903 3.14003C51.6903 2.50421 51.2218 1.98877 50.644 1.98877C50.0661 1.98877 49.5977 2.50421 49.5977 3.14003C49.5977 3.77586 50.0661 4.2913 50.644 4.2913Z" fill="url(#paint17_linear_35_1788)"/>
<path d="M59.8891 4.2913C60.4669 4.2913 60.9354 3.77586 60.9354 3.14003C60.9354 2.50421 60.4669 1.98877 59.8891 1.98877C59.3112 1.98877 58.8428 2.50421 58.8428 3.14003C58.8428 3.77586 59.3112 4.2913 59.8891 4.2913Z" fill="url(#paint18_linear_35_1788)"/>
<path d="M68.8217 4.2913C69.3995 4.2913 69.868 3.77586 69.868 3.14003C69.868 2.50421 69.3995 1.98877 68.8217 1.98877C68.2438 1.98877 67.7754 2.50421 67.7754 3.14003C67.7754 3.77586 68.2438 4.2913 68.8217 4.2913Z" fill="black"/>
<path d="M23.5336 4.2913C24.1115 4.2913 24.5799 3.77586 24.5799 3.14003C24.5799 2.50421 24.1115 1.98877 23.5336 1.98877C22.9557 1.98877 22.4873 2.50421 22.4873 3.14003C22.4873 3.77586 22.9557 4.2913 23.5336 4.2913Z" fill="url(#paint19_linear_35_1788)"/>
<path d="M14.4457 4.18632C15.0236 4.18632 15.492 3.67088 15.492 3.03505C15.492 2.39923 15.0236 1.88379 14.4457 1.88379C13.8679 1.88379 13.3994 2.39923 13.3994 3.03505C13.3994 3.67088 13.8679 4.18632 14.4457 4.18632Z" fill="url(#paint20_linear_35_1788)"/>
<path d="M5.35587 4.18632C5.93372 4.18632 6.40217 3.67088 6.40217 3.03505C6.40217 2.39923 5.93372 1.88379 5.35587 1.88379C4.77801 1.88379 4.30957 2.39923 4.30957 3.03505C4.30957 3.67088 4.77801 4.18632 5.35587 4.18632Z" fill="black"/>
<path d="M28.063 1.88389C28.5546 1.88389 28.9531 1.46216 28.9531 0.941944C28.9531 0.421723 28.5546 0 28.063 0C27.5714 0 27.1729 0.421723 27.1729 0.941944C27.1729 1.46216 27.5714 1.88389 28.063 1.88389Z" fill="url(#paint21_linear_35_1788)"/>
<path d="M37.0894 1.98838C37.581 1.98838 37.9795 1.56666 37.9795 1.04644C37.9795 0.526215 37.581 0.104492 37.0894 0.104492C36.5977 0.104492 36.1992 0.526215 36.1992 1.04644C36.1992 1.56666 36.5977 1.98838 37.0894 1.98838Z" fill="url(#paint22_linear_35_1788)"/>
<path d="M46.1782 1.98838C46.6698 1.98838 47.0684 1.56666 47.0684 1.04644C47.0684 0.526215 46.6698 0.104492 46.1782 0.104492C45.6866 0.104492 45.2881 0.526215 45.2881 1.04644C45.2881 1.56666 45.6866 1.98838 46.1782 1.98838Z" fill="url(#paint23_linear_35_1788)"/>
<path d="M55.4224 1.98838C55.914 1.98838 56.3125 1.56666 56.3125 1.04644C56.3125 0.526215 55.914 0.104492 55.4224 0.104492C54.9308 0.104492 54.5322 0.526215 54.5322 1.04644C54.5322 1.56666 54.9308 1.98838 55.4224 1.98838Z" fill="url(#paint24_linear_35_1788)"/>
<path d="M64.1997 1.98838C64.6913 1.98838 65.0898 1.56666 65.0898 1.04644C65.0898 0.526215 64.6913 0.104492 64.1997 0.104492C63.7081 0.104492 63.3096 0.526215 63.3096 1.04644C63.3096 1.56666 63.7081 1.98838 64.1997 1.98838Z" fill="url(#paint25_linear_35_1788)"/>
<path d="M73.2876 1.98838C73.7792 1.98838 74.1777 1.56666 74.1777 1.04644C74.1777 0.526215 73.7792 0.104492 73.2876 0.104492C72.796 0.104492 72.3975 0.526215 72.3975 1.04644C72.3975 1.56666 72.796 1.98838 73.2876 1.98838Z" fill="black"/>
<path d="M19.0669 1.98838C19.5585 1.98838 19.957 1.56666 19.957 1.04644C19.957 0.526215 19.5585 0.104492 19.0669 0.104492C18.5753 0.104492 18.1768 0.526215 18.1768 1.04644C18.1768 1.56666 18.5753 1.98838 19.0669 1.98838Z" fill="url(#paint26_linear_35_1788)"/>
<path d="M9.82275 1.98838C10.3144 1.98838 10.7129 1.56666 10.7129 1.04644C10.7129 0.526215 10.3144 0.104492 9.82275 0.104492C9.33114 0.104492 8.93262 0.526215 8.93262 1.04644C8.93262 1.56666 9.33114 1.98838 9.82275 1.98838Z" fill="url(#paint27_linear_35_1788)"/>
<path d="M0.890135 1.98838C1.38174 1.98838 1.78027 1.56666 1.78027 1.04644C1.78027 0.526215 1.38174 0.104492 0.890135 0.104492C0.398527 0.104492 0 0.526215 0 1.04644C0 1.56666 0.398527 1.98838 0.890135 1.98838Z" fill="url(#paint28_linear_35_1788)"/>
<path d="M46.2406 28.1188C47.8534 28.1188 49.1608 26.6662 49.1608 24.8744C49.1608 23.0825 47.8534 21.6299 46.2406 21.6299C44.6278 21.6299 43.3203 23.0825 43.3203 24.8744C43.3203 26.6662 44.6278 28.1188 46.2406 28.1188Z" fill="black"/>
<defs>
<linearGradient id="paint0_linear_35_1788" x1="37.1517" y1="21.6299" x2="37.1517" y2="28.1189" gradientUnits="userSpaceOnUse">
<stop offset="0.185417" stop-color="#D02B2B"/>
<stop offset="0.9999" stop-color="#0057FF"/>
<stop offset="1" stop-color="#375DBF" stop-opacity="0"/>
</linearGradient>
<linearGradient id="paint1_linear_35_1788" x1="32.6071" y1="15.7341" x2="32.6071" y2="20.9323" gradientUnits="userSpaceOnUse">
<stop offset="0.185417" stop-color="#D02B2B"/>
<stop offset="0.9999" stop-color="#0057FF"/>
<stop offset="1" stop-color="#375DBF" stop-opacity="0"/>
</linearGradient>
<linearGradient id="paint2_linear_35_1788" x1="41.6647" y1="15.7341" x2="41.6647" y2="20.9323" gradientUnits="userSpaceOnUse">
<stop offset="0.185417" stop-color="#D02B2B"/>
<stop offset="0.9999" stop-color="#0057FF"/>
<stop offset="1" stop-color="#375DBF" stop-opacity="0"/>
</linearGradient>
<linearGradient id="paint3_linear_35_1788" x1="46.1777" y1="11.1289" x2="46.1777" y2="15.3851" gradientUnits="userSpaceOnUse">
<stop offset="0.185417" stop-color="#D02B2B"/>
<stop offset="0.9999" stop-color="#0057FF"/>
<stop offset="1" stop-color="#375DBF" stop-opacity="0"/>
</linearGradient>
<linearGradient id="paint4_linear_35_1788" x1="37.0878" y1="11.1289" x2="37.0878" y2="15.3851" gradientUnits="userSpaceOnUse">
<stop offset="0.185417" stop-color="#D02B2B"/>
<stop offset="0.9999" stop-color="#0057FF"/>
<stop offset="1" stop-color="#375DBF" stop-opacity="0"/>
</linearGradient>
<linearGradient id="paint5_linear_35_1788" x1="28.0624" y1="11.1289" x2="28.0624" y2="15.3851" gradientUnits="userSpaceOnUse">
<stop offset="0.185417" stop-color="#D02B2B"/>
<stop offset="0.9999" stop-color="#0057FF"/>
<stop offset="1" stop-color="#375DBF" stop-opacity="0"/>
</linearGradient>
<linearGradient id="paint6_linear_35_1788" x1="41.6964" y1="7.36108" x2="41.6964" y2="10.9544" gradientUnits="userSpaceOnUse">
<stop offset="0.185417" stop-color="#D02B2B"/>
<stop offset="0.9999" stop-color="#0057FF"/>
<stop offset="1" stop-color="#375DBF" stop-opacity="0"/>
</linearGradient>
<linearGradient id="paint7_linear_35_1788" x1="50.7843" y1="7.36108" x2="50.7843" y2="10.9544" gradientUnits="userSpaceOnUse">
<stop offset="0.185417" stop-color="#D02B2B"/>
<stop offset="0.9999" stop-color="#0057FF"/>
<stop offset="1" stop-color="#375DBF" stop-opacity="0"/>
</linearGradient>
<linearGradient id="paint8_linear_35_1788" x1="32.6075" y1="7.36108" x2="32.6075" y2="10.9544" gradientUnits="userSpaceOnUse">
<stop offset="0.185417" stop-color="#D02B2B"/>
<stop offset="0.9999" stop-color="#0057FF"/>
<stop offset="1" stop-color="#375DBF" stop-opacity="0"/>
</linearGradient>
<linearGradient id="paint9_linear_35_1788" x1="23.5177" y1="7.18677" x2="23.5177" y2="10.7801" gradientUnits="userSpaceOnUse">
<stop offset="0.185417" stop-color="#D02B2B"/>
<stop offset="0.9999" stop-color="#0057FF"/>
<stop offset="1" stop-color="#375DBF" stop-opacity="0"/>
</linearGradient>
<linearGradient id="paint10_linear_35_1788" x1="37.2454" y1="4.29102" x2="37.2454" y2="7.18663" gradientUnits="userSpaceOnUse">
<stop offset="0.185417" stop-color="#D02B2B"/>
<stop offset="0.9999" stop-color="#0057FF"/>
<stop offset="1" stop-color="#375DBF" stop-opacity="0"/>
</linearGradient>
<linearGradient id="paint11_linear_35_1788" x1="28.1555" y1="4.29102" x2="28.1555" y2="7.18663" gradientUnits="userSpaceOnUse">
<stop offset="0.185417" stop-color="#D02B2B"/>
<stop offset="0.9999" stop-color="#0057FF"/>
<stop offset="1" stop-color="#375DBF" stop-opacity="0"/>
</linearGradient>
<linearGradient id="paint12_linear_35_1788" x1="19.0676" y1="4.18627" x2="19.0676" y2="7.08187" gradientUnits="userSpaceOnUse">
<stop offset="0.185417" stop-color="#D02B2B"/>
<stop offset="0.9999" stop-color="#0057FF"/>
<stop offset="1" stop-color="#375DBF" stop-opacity="0"/>
</linearGradient>
<linearGradient id="paint13_linear_35_1788" x1="46.178" y1="4.18627" x2="46.178" y2="7.08187" gradientUnits="userSpaceOnUse">
<stop offset="0.185417" stop-color="#D02B2B"/>
<stop offset="0.9999" stop-color="#0057FF"/>
<stop offset="1" stop-color="#375DBF" stop-opacity="0"/>
</linearGradient>
<linearGradient id="paint14_linear_35_1788" x1="55.2659" y1="4.29102" x2="55.2659" y2="7.18663" gradientUnits="userSpaceOnUse">
<stop offset="0.185417" stop-color="#D02B2B"/>
<stop offset="0.9999" stop-color="#0057FF"/>
<stop offset="1" stop-color="#375DBF" stop-opacity="0"/>
</linearGradient>
<linearGradient id="paint15_linear_35_1788" x1="32.6225" y1="1.88379" x2="32.6225" y2="4.18632" gradientUnits="userSpaceOnUse">
<stop offset="0.185417" stop-color="#D02B2B"/>
<stop offset="0.9999" stop-color="#0057FF"/>
<stop offset="1" stop-color="#375DBF" stop-opacity="0"/>
</linearGradient>
<linearGradient id="paint16_linear_35_1788" x1="41.7123" y1="1.88379" x2="41.7123" y2="4.18632" gradientUnits="userSpaceOnUse">
<stop offset="0.185417" stop-color="#D02B2B"/>
<stop offset="0.9999" stop-color="#0057FF"/>
<stop offset="1" stop-color="#375DBF" stop-opacity="0"/>
</linearGradient>
<linearGradient id="paint17_linear_35_1788" x1="50.644" y1="1.98877" x2="50.644" y2="4.2913" gradientUnits="userSpaceOnUse">
<stop offset="0.185417" stop-color="#D02B2B"/>
<stop offset="0.9999" stop-color="#0057FF"/>
<stop offset="1" stop-color="#375DBF" stop-opacity="0"/>
</linearGradient>
<linearGradient id="paint18_linear_35_1788" x1="59.8891" y1="1.98877" x2="59.8891" y2="4.2913" gradientUnits="userSpaceOnUse">
<stop offset="0.185417" stop-color="#D02B2B"/>
<stop offset="0.9999" stop-color="#0057FF"/>
<stop offset="1" stop-color="#375DBF" stop-opacity="0"/>
</linearGradient>
<linearGradient id="paint19_linear_35_1788" x1="23.5336" y1="1.98877" x2="23.5336" y2="4.2913" gradientUnits="userSpaceOnUse">
<stop offset="0.185417" stop-color="#D02B2B"/>
<stop offset="0.9999" stop-color="#0057FF"/>
<stop offset="1" stop-color="#375DBF" stop-opacity="0"/>
</linearGradient>
<linearGradient id="paint20_linear_35_1788" x1="14.4457" y1="1.88379" x2="14.4457" y2="4.18632" gradientUnits="userSpaceOnUse">
<stop offset="0.185417" stop-color="#D02B2B"/>
<stop offset="0.9999" stop-color="#0057FF"/>
<stop offset="1" stop-color="#375DBF" stop-opacity="0"/>
</linearGradient>
<linearGradient id="paint21_linear_35_1788" x1="28.063" y1="0" x2="28.063" y2="1.88388" gradientUnits="userSpaceOnUse">
<stop stop-color="#D02B2B"/>
<stop offset="1" stop-color="#375DBF"/>
</linearGradient>
<linearGradient id="paint22_linear_35_1788" x1="37.0894" y1="0.104493" x2="37.0894" y2="1.98838" gradientUnits="userSpaceOnUse">
<stop stop-color="#D02B2B"/>
<stop offset="1" stop-color="#375DBF"/>
</linearGradient>
<linearGradient id="paint23_linear_35_1788" x1="46.1782" y1="0.104493" x2="46.1782" y2="1.98838" gradientUnits="userSpaceOnUse">
<stop stop-color="#D02B2B"/>
<stop offset="1" stop-color="#375DBF"/>
</linearGradient>
<linearGradient id="paint24_linear_35_1788" x1="55.4224" y1="0.104493" x2="55.4224" y2="1.98838" gradientUnits="userSpaceOnUse">
<stop stop-color="#D02B2B"/>
<stop offset="1" stop-color="#375DBF"/>
</linearGradient>
<linearGradient id="paint25_linear_35_1788" x1="64.1997" y1="0.104493" x2="64.1997" y2="1.98838" gradientUnits="userSpaceOnUse">
<stop stop-color="#D02B2B"/>
<stop offset="1" stop-color="#375DBF"/>
</linearGradient>
<linearGradient id="paint26_linear_35_1788" x1="19.0669" y1="0.104493" x2="19.0669" y2="1.98838" gradientUnits="userSpaceOnUse">
<stop stop-color="#D02B2B"/>
<stop offset="1" stop-color="#375DBF"/>
</linearGradient>
<linearGradient id="paint27_linear_35_1788" x1="9.82275" y1="0.104493" x2="9.82275" y2="1.98838" gradientUnits="userSpaceOnUse">
<stop stop-color="#D02B2B"/>
<stop offset="1" stop-color="#375DBF"/>
</linearGradient>
<linearGradient id="paint28_linear_35_1788" x1="0.890135" y1="0.104493" x2="0.890135" y2="1.98838" gradientUnits="userSpaceOnUse">
<stop stop-color="#5B0303"/>
<stop offset="1" stop-color="#375DBF"/>
</linearGradient>
</defs>
</svg>
