<svg width="60" height="60" viewBox="0 0 60 60" fill="none" xmlns="http://www.w3.org/2000/svg">
<circle cx="30" cy="30" r="30" fill="black" fill-opacity="0.38"/>
<path d="M18.8719 29.7776C18.8715 30.1082 19.0027 30.4255 19.2365 30.6593C19.4703 30.8931 19.7875 31.0242 20.1182 31.0239L28.7537 31.0327L28.7537 39.6771C28.7533 40.0077 28.8845 40.325 29.1183 40.5588C29.3521 40.7926 29.6693 40.9237 30 40.9234C30.6894 40.9234 31.2463 40.3665 31.2463 39.6771L31.2463 31.0327L39.8906 31.0327C40.5801 31.0327 41.1369 30.4759 41.1369 29.7864C41.1369 29.097 40.5801 28.5402 39.8906 28.5402L31.2463 28.5402V19.8958C31.2463 19.2064 30.6894 18.6495 30 18.6495C29.3106 18.6495 28.7537 19.2064 28.7537 19.8958V28.5402L20.1093 28.5402C19.4376 28.5402 18.8719 29.1058 18.8719 29.7776Z" fill="white"/>
</svg>
